<?xml version="1.0" standalone="no"?>
<!DOCTYPE svg PUBLIC "-//W3C//DTD SVG 20010904//EN"
 "http://www.w3.org/TR/2001/REC-SVG-20010904/DTD/svg10.dtd">
<svg version="1.0" xmlns="http://www.w3.org/2000/svg"
 width="128.000000pt" height="128.000000pt" viewBox="0 0 128.000000 128.000000"
 preserveAspectRatio="xMidYMid meet">
<metadata>
Created by potrace 1.11, written by Peter Selinger 2001-2013
</metadata>
<g transform="translate(0.000000,128.000000) scale(0.100000,-0.100000)"
fill="#000000" stroke="none">
<path d="M564 1238 c-138 -14 -268 -80 -367 -187 -107 -116 -159 -246 -160
-401 -1 -112 13 -180 59 -275 81 -170 235 -291 421 -330 131 -28 255 -11 383
51 56 28 95 57 155 118 124 124 175 248 176 422 2 366 -301 639 -667 602z
m219 -24 c203 -52 368 -219 423 -427 19 -70 18 -225 -2 -301 -24 -95 -81 -193
-154 -267 -118 -119 -243 -172 -410 -173 -163 0 -281 44 -399 150 -202 184
-253 481 -124 727 70 134 219 252 364 291 73 20 226 20 302 0z"/>
<path d="M497 1155 c-85 -23 -160 -68 -227 -135 -169 -169 -208 -424 -98 -634
42 -79 146 -183 225 -224 281 -148 627 -4 733 304 100 288 -72 612 -365 690
-63 17 -205 16 -268 -1z m357 -196 c8 -8 -6 -699 -14 -699 -3 0 -51 27 -106
59 l-99 59 -101 -54 c-56 -30 -106 -54 -113 -54 -8 0 -11 94 -11 351 l0 351
219 -3 c121 -2 222 -7 225 -10z"/>
<path d="M617 745 c-12 -26 -23 -35 -41 -35 -49 0 -57 -10 -28 -35 21 -18 26
-30 24 -64 l-3 -41 34 16 c31 15 36 15 65 0 42 -22 44 -21 36 20 -5 30 -2 40
20 63 23 24 25 29 11 35 -9 3 -27 6 -40 6 -16 0 -26 9 -35 30 -18 43 -25 44
-43 5z"/>
</g>
</svg>
